<?xml version="1.0" standalone="no"?><!DOCTYPE svg PUBLIC "-//W3C//DTD SVG 1.1//EN" "http://www.w3.org/Graphics/SVG/1.1/DTD/svg11.dtd"><svg t="1539573390981" class="icon" style="" viewBox="0 0 1024 1024" version="1.1" xmlns="http://www.w3.org/2000/svg" p-id="2224" xmlns:xlink="http://www.w3.org/1999/xlink" width="10" height="10"><defs><style type="text/css"></style></defs><path d="M292.557312 694.878208q0-30.283776-21.4272-51.710976t-51.710976-21.4272-51.710976 21.4272-21.4272 51.710976 21.4272 51.710976 51.710976 21.4272 51.710976-21.4272 21.4272-51.710976zm585.105408 0q0-30.283776-21.4272-51.710976t-51.710976-21.4272-51.710976 21.4272-21.4272 51.710976 21.4272 51.710976 51.710976 21.4272 51.710976-21.4272 21.4272-51.710976zm-26.284032-226.271232l-41.140224-219.414528q-2.85696-13.142016-12.85632-21.4272t-23.141376-8.285184l-524.537856 0q-13.142016 0-23.141376 8.285184t-12.85632 21.4272l-41.140224 219.414528q-2.85696 17.14176 7.999488 30.283776t27.998208 13.142016l606.818304 0q17.14176 0 27.998208-13.142016t7.999488-30.283776zm-129.134592-349.691904q0-11.42784-7.999488-19.427328t-19.427328-7.999488l-365.69088 0q-11.42784 0-19.427328 7.999488t-7.999488 19.427328 7.999488 19.427328 19.427328 7.999488l365.69088 0q11.42784 0 19.427328-7.999488t7.999488-19.427328zm228.5568 414.2592l0 344.549376-73.138176 0 0 73.138176q0 30.283776-21.4272 51.710976t-51.710976 21.4272-51.710976-21.4272-21.4272-51.710976l0-73.138176-438.829056 0 0 73.138176q0 30.283776-21.4272 51.710976t-51.710976 21.4272-51.710976-21.4272-21.4272-51.710976l0-73.138176-73.138176 0 0-344.549376q0-63.995904 14.2848-127.420416l58.853376-259.411968q5.142528-44.568576 55.71072-78.280704t131.42016-50.853888 178.56-17.14176 178.56 17.14176 131.42016 50.853888 55.71072 78.280704l59.99616 259.411968q13.142016 58.281984 13.142016 127.420416z" p-id="2225"></path></svg>