<?xml version="1.0" standalone="no"?><!DOCTYPE svg PUBLIC "-//W3C//DTD SVG 1.1//EN" "http://www.w3.org/Graphics/SVG/1.1/DTD/svg11.dtd"><svg t="1539573739088" class="icon" style="" viewBox="0 0 1024 1024" version="1.1" xmlns="http://www.w3.org/2000/svg" p-id="1844" xmlns:xlink="http://www.w3.org/1999/xlink" width="10" height="10"><defs><style type="text/css"></style></defs><path d="M512 896l153.6-204.8c-42.666667-32-96-51.2-153.6-51.2s-110.933333 19.2-153.6 51.2L512 896m0-768C339.2 128 179.626667 185.173333 51.2 281.6L128 384c106.666667-80.213333 239.786667-128 384-128s277.333333 47.786667 384 128l76.8-102.4C844.373333 185.173333 684.8 128 512 128m0 256c-115.2 0-221.44 37.973333-307.2 102.4l76.8 102.4C345.6 540.586667 425.386667 512 512 512c86.613333 0 166.4 28.586667 230.4 76.8l76.8-102.4C733.44 421.973333 627.2 384 512 384z" fill="" p-id="1845"></path></svg>